<svg xmlns="http://www.w3.org/2000/svg" xmlns:xlink="http://www.w3.org/1999/xlink" width="115.276" height="48.137" viewBox="0 0 115.276 48.137">
  <defs>
    <clipPath id="clip-path">
      <path id="Path_64637" data-name="Path 64637" d="M4861.619,546.653a9.587,9.587,0,0,0,9.83,9.593,9.214,9.214,0,0,0,7.141-3.2,2.155,2.155,0,0,0,.589-1.4,1.724,1.724,0,0,0-1.736-1.712,1.993,1.993,0,0,0-1.484.731,5.713,5.713,0,0,1-4.48,2.075,6.089,6.089,0,0,1,0-12.175,5.69,5.69,0,0,1,4.509,2.077,1.94,1.94,0,0,0,1.456.729,1.748,1.748,0,0,0,1.765-1.711,2.085,2.085,0,0,0-.588-1.4,9.309,9.309,0,0,0-7.141-3.2,9.61,9.61,0,0,0-9.858,9.595" transform="translate(-4861.619 -537.058)" fill="none"/>
    </clipPath>
    <clipPath id="clip-path-2">
      <rect id="Rectangle_29776" data-name="Rectangle 29776" width="17.587" height="19.188"/>
    </clipPath>
    <clipPath id="clip-path-3">
      <path id="Path_64638" data-name="Path 64638" d="M4902.762,546.653a5.94,5.94,0,1,1,5.939,6.087,5.779,5.779,0,0,1-5.939-6.087m-3.894,0a9.836,9.836,0,1,0,9.8-9.595,9.581,9.581,0,0,0-9.8,9.595" transform="translate(-4898.868 -537.058)" fill="none"/>
    </clipPath>
    <clipPath id="clip-path-4">
      <rect id="Rectangle_29778" data-name="Rectangle 29778" width="19.666" height="19.188" fill="none"/>
    </clipPath>
    <clipPath id="clip-path-5">
      <path id="Path_64639" data-name="Path 64639" d="M4951.69,538.994l.028,9.818-8.168-10.52c-.56-.7-.978-1.234-1.925-1.234a1.857,1.857,0,0,0-1.84,1.907v15.344a1.883,1.883,0,1,0,3.765,0v-9.817l8.2,10.6a2.292,2.292,0,0,0,1.868,1.15,1.839,1.839,0,0,0,1.84-1.907V538.994a1.883,1.883,0,1,0-3.764,0" transform="translate(-4939.786 -537.058)" fill="none"/>
    </clipPath>
    <clipPath id="clip-path-6">
      <rect id="Rectangle_29780" data-name="Rectangle 29780" width="15.669" height="19.188" fill="none"/>
    </clipPath>
    <clipPath id="clip-path-7">
      <path id="Path_64640" data-name="Path 64640" d="M4975.38,537.621a1.713,1.713,0,1,0,0,3.427h4.38v13.5a1.884,1.884,0,1,0,3.767,0v-13.5h4.38a1.7,1.7,0,0,0,1.73-1.713,1.67,1.67,0,0,0-1.73-1.714Z" transform="translate(-4973.649 -537.621)" fill="none"/>
    </clipPath>
    <clipPath id="clip-path-8">
      <rect id="Rectangle_29782" data-name="Rectangle 29782" width="15.988" height="18.868" fill="none"/>
    </clipPath>
    <clipPath id="clip-path-9">
      <path id="Path_64641" data-name="Path 64641" d="M5019.968,538.994v9.537a4.06,4.06,0,1,1-8.114,0v-9.537a1.889,1.889,0,1,0-3.778,0v9.257c0,4.768,3.162,7.994,7.834,7.994s7.834-3.226,7.834-7.994v-9.257a1.889,1.889,0,1,0-3.777,0" transform="translate(-5008.076 -537.058)" fill="none"/>
    </clipPath>
    <clipPath id="clip-path-11">
      <path id="Path_64642" data-name="Path 64642" d="M5042.413,542.3c0,2.386,1.538,3.984,4.473,5.33l1.985.9c1.706.785,2.349,1.234,2.349,2.3,0,1.262-.979,2.048-2.627,2.048a5.509,5.509,0,0,1-3.941-1.909,1.476,1.476,0,0,0-.979-.365,1.714,1.714,0,0,0-1.733,1.684,2.057,2.057,0,0,0,.7,1.458,8.438,8.438,0,0,0,5.955,2.5c3.689,0,6.457-2.131,6.457-5.554,0-2.525-1.482-4.039-4.556-5.414l-2.1-.926c-1.649-.758-2.153-1.206-2.153-2.131,0-1.151.951-1.8,2.292-1.8a4.17,4.17,0,0,1,2.907,1.317,1.6,1.6,0,0,0,1.035.393,1.753,1.753,0,0,0,1.734-1.683,1.717,1.717,0,0,0-.5-1.206,6.634,6.634,0,0,0-5.172-2.189c-3.494,0-6.122,2.133-6.122,5.245" transform="translate(-5041.938 -537.058)" fill="none"/>
    </clipPath>
    <clipPath id="clip-path-12">
      <rect id="Rectangle_29786" data-name="Rectangle 29786" width="13.111" height="19.188" fill="none"/>
    </clipPath>
  </defs>
  <g id="Group_98833" data-name="Group 98833" transform="translate(-4861.619 -524.642)">
    <g id="Group_96212" data-name="Group 96212" transform="translate(4861.619 524.642)">
      <g id="Group_96186" data-name="Group 96186" transform="translate(0 7.035)">
        <g id="Group_96185" data-name="Group 96185">
          <g id="Group_96184" data-name="Group 96184" clip-path="url(#clip-path)">
            <g id="Group_96183" data-name="Group 96183" transform="translate(0 0)">
              <g id="Group_96182" data-name="Group 96182" clip-path="url(#clip-path-2)">
                <rect id="Rectangle_29775" data-name="Rectangle 29775" width="17.813" height="19.309" transform="translate(-0.102 -0.101)" fill="#fff"/>
              </g>
            </g>
          </g>
        </g>
      </g>
      <g id="Group_96191" data-name="Group 96191" transform="translate(21.105 7.035)">
        <g id="Group_96190" data-name="Group 96190">
          <g id="Group_96189" data-name="Group 96189" clip-path="url(#clip-path-3)">
            <g id="Group_96188" data-name="Group 96188" transform="translate(0 0)">
              <g id="Group_96187" data-name="Group 96187" clip-path="url(#clip-path-4)">
                <rect id="Rectangle_29777" data-name="Rectangle 29777" width="19.853" height="19.309" transform="translate(-0.129 -0.101)" fill="#fff"/>
              </g>
            </g>
          </g>
        </g>
      </g>
      <g id="Group_96196" data-name="Group 96196" transform="translate(44.288 7.035)">
        <g id="Group_96195" data-name="Group 96195">
          <g id="Group_96194" data-name="Group 96194" clip-path="url(#clip-path-5)">
            <g id="Group_96193" data-name="Group 96193" transform="translate(0 0)">
              <g id="Group_96192" data-name="Group 96192" clip-path="url(#clip-path-6)">
                <rect id="Rectangle_29779" data-name="Rectangle 29779" width="15.774" height="19.309" transform="translate(-0.06 -0.101)" fill="#fff"/>
              </g>
            </g>
          </g>
        </g>
      </g>
      <g id="Group_96201" data-name="Group 96201" transform="translate(63.474 7.354)">
        <g id="Group_96200" data-name="Group 96200">
          <g id="Group_96199" data-name="Group 96199" clip-path="url(#clip-path-7)">
            <g id="Group_96198" data-name="Group 96198" transform="translate(0 0)">
              <g id="Group_96197" data-name="Group 96197" clip-path="url(#clip-path-8)">
                <rect id="Rectangle_29781" data-name="Rectangle 29781" width="16.182" height="18.901" transform="translate(-0.073 -0.012)" fill="#fff"/>
              </g>
            </g>
          </g>
        </g>
      </g>
      <g id="Group_96206" data-name="Group 96206" transform="translate(82.98 7.035)">
        <g id="Group_96205" data-name="Group 96205">
          <g id="Group_96204" data-name="Group 96204" clip-path="url(#clip-path-9)">
            <g id="Group_96203" data-name="Group 96203" transform="translate(0 0)">
              <g id="Group_96202" data-name="Group 96202" clip-path="url(#clip-path-6)">
                <rect id="Rectangle_29783" data-name="Rectangle 29783" width="15.91" height="19.309" transform="translate(-0.134 -0.101)" fill="#fff"/>
              </g>
            </g>
          </g>
        </g>
      </g>
      <g id="Group_96211" data-name="Group 96211" transform="translate(102.166 7.035)">
        <g id="Group_96210" data-name="Group 96210">
          <g id="Group_96209" data-name="Group 96209" clip-path="url(#clip-path-11)">
            <g id="Group_96208" data-name="Group 96208" transform="translate(0 0)">
              <g id="Group_96207" data-name="Group 96207" clip-path="url(#clip-path-12)">
                <rect id="Rectangle_29785" data-name="Rectangle 29785" width="13.19" height="19.309" transform="translate(-0.011 -0.101)" fill="#fff"/>
              </g>
            </g>
          </g>
        </g>
      </g>
      <path id="Path_64643" data-name="Path 64643" d="M4861.9,525.762a1.1,1.1,0,0,1,.022-.219,1.057,1.057,0,0,1,.063-.21,1.121,1.121,0,0,1,.1-.194,1.012,1.012,0,0,1,.14-.169,1.034,1.034,0,0,1,.169-.139,1.118,1.118,0,0,1,.622-.189h37.253v2.239h-37.253a1.127,1.127,0,0,1-.429-.085,1.175,1.175,0,0,1-.193-.1,1.032,1.032,0,0,1-.169-.139,1.012,1.012,0,0,1-.14-.169,1.138,1.138,0,0,1-.1-.193,1.063,1.063,0,0,1-.063-.21A1.094,1.094,0,0,1,4861.9,525.762Z" transform="translate(-4861.741 -524.642)" fill="#ff0935"/>
      <rect id="Rectangle_29787" data-name="Rectangle 29787" width="38.372" height="2.238" transform="translate(38.532 0)" fill="#ffd119"/>
      <path id="Path_64644" data-name="Path 64644" d="M5035.724,525.762a1.169,1.169,0,0,1-.021.218,1.213,1.213,0,0,1-.064.21,1.171,1.171,0,0,1-.1.193,1.147,1.147,0,0,1-.14.169,1.125,1.125,0,0,1-.169.139,1.114,1.114,0,0,1-.4.167,1.124,1.124,0,0,1-.218.022h-37.253v-2.239H5034.6a1.109,1.109,0,0,1,.428.086,1.1,1.1,0,0,1,.194.1,1.128,1.128,0,0,1,.169.139,1.1,1.1,0,0,1,.243.363,1.207,1.207,0,0,1,.064.21A1.171,1.171,0,0,1,5035.724,525.762Z" transform="translate(-4920.448 -524.642)" fill="#0dcea6"/>
    </g>
    <g id="Group_96215" data-name="Group 96215" transform="translate(4861.619 558.513)">
      <g id="Group_96213" data-name="Group 96213" transform="translate(0 0)">
        <path id="Path_64645" data-name="Path 64645" d="M5078.1,558.611V548.579h-3.275a1.268,1.268,0,0,1-1.292-1.273,1.256,1.256,0,0,1,1.292-1.272h9.365a1.244,1.244,0,0,1,1.293,1.272,1.269,1.269,0,0,1-1.293,1.273h-3.274v10.032a1.408,1.408,0,1,1-2.815,0Z" transform="translate(-5073.534 -545.785)" fill="#fff"/>
        <path id="Path_64646" data-name="Path 64646" d="M5102.277,558.4V547.432a1.373,1.373,0,0,1,1.4-1.4h6.736a1.244,1.244,0,0,1,1.293,1.272,1.269,1.269,0,0,1-1.293,1.273h-5.318v2.795h3.649a1.2,1.2,0,1,1,0,2.4h-3.649v3.483h5.568a1.272,1.272,0,1,1,0,2.545h-6.986A1.373,1.373,0,0,1,5102.277,558.4Z" transform="translate(-5085.992 -545.785)" fill="#fff"/>
        <path id="Path_64647" data-name="Path 64647" d="M5126.09,552.726a7.151,7.151,0,0,1,7.341-7.133,6.932,6.932,0,0,1,5.318,2.378,1.546,1.546,0,0,1,.439,1.043,1.3,1.3,0,0,1-1.314,1.273,1.449,1.449,0,0,1-1.085-.542,4.237,4.237,0,0,0-3.357-1.543,4.527,4.527,0,0,0,0,9.052,4.259,4.259,0,0,0,3.337-1.543,1.483,1.483,0,0,1,1.1-.543,1.282,1.282,0,0,1,1.293,1.273,1.6,1.6,0,0,1-.438,1.042,6.87,6.87,0,0,1-5.319,2.378A7.134,7.134,0,0,1,5126.09,552.726Z" transform="translate(-5096.313 -545.593)" fill="#fff"/>
        <path id="Path_64648" data-name="Path 64648" d="M5158.625,558.4V547.053a1.409,1.409,0,1,1,2.815,0v4.067h6.091v-4.088a1.408,1.408,0,1,1,2.815,0V558.4a1.409,1.409,0,1,1-2.815,0v-4.734h-6.091V558.4a1.409,1.409,0,1,1-2.815,0Z" transform="translate(-5110.414 -545.593)" fill="#fff"/>
      </g>
      <g id="Group_96214" data-name="Group 96214" transform="translate(0 0)">
        <path id="Path_64649" data-name="Path 64649" d="M5078.1,558.611V548.579h-3.275a1.268,1.268,0,0,1-1.292-1.273,1.256,1.256,0,0,1,1.292-1.272h9.365a1.244,1.244,0,0,1,1.293,1.272,1.269,1.269,0,0,1-1.293,1.273h-3.274v10.032a1.408,1.408,0,1,1-2.815,0Z" transform="translate(-5073.534 -545.785)" fill="#fff"/>
        <path id="Path_64650" data-name="Path 64650" d="M5102.277,558.4V547.432a1.373,1.373,0,0,1,1.4-1.4h6.736a1.244,1.244,0,0,1,1.293,1.272,1.269,1.269,0,0,1-1.293,1.273h-5.318v2.795h3.649a1.2,1.2,0,1,1,0,2.4h-3.649v3.483h5.568a1.272,1.272,0,1,1,0,2.545h-6.986A1.373,1.373,0,0,1,5102.277,558.4Z" transform="translate(-5085.992 -545.785)" fill="#fff"/>
        <path id="Path_64651" data-name="Path 64651" d="M5126.09,552.726a7.151,7.151,0,0,1,7.341-7.133,6.932,6.932,0,0,1,5.318,2.378,1.546,1.546,0,0,1,.439,1.043,1.3,1.3,0,0,1-1.314,1.273,1.449,1.449,0,0,1-1.085-.542,4.237,4.237,0,0,0-3.357-1.543,4.527,4.527,0,0,0,0,9.052,4.259,4.259,0,0,0,3.337-1.543,1.483,1.483,0,0,1,1.1-.543,1.282,1.282,0,0,1,1.293,1.273,1.6,1.6,0,0,1-.438,1.042,6.87,6.87,0,0,1-5.319,2.378A7.134,7.134,0,0,1,5126.09,552.726Z" transform="translate(-5096.313 -545.593)" fill="#fff"/>
        <path id="Path_64652" data-name="Path 64652" d="M5158.625,558.4V547.053a1.409,1.409,0,1,1,2.815,0v4.067h6.091v-4.088a1.408,1.408,0,1,1,2.815,0V558.4a1.409,1.409,0,1,1-2.815,0v-4.734h-6.091V558.4a1.409,1.409,0,1,1-2.815,0Z" transform="translate(-5110.414 -545.593)" fill="#fff"/>
      </g>
    </g>
  </g>
</svg>
