<svg xmlns="http://www.w3.org/2000/svg" width="30" height="30" viewBox="0 0 30 30">
    <g id="Group_102223" data-name="Group 102223" transform="translate(14544.5 13480)">
        <path class="blue" data-name="Path 108500"
            d="M-14540-13460.735l19.432-.182s5.885-1.86,5.221-6.506-6.3-5.581-6.3-5.581a9.084,9.084,0,0,0-9.533-6.114c-7.62.437-8.582,9.1-8.582,9.1s-4.04,1.152-3.767,4.9A4.645,4.645,0,0,0-14540-13460.735Z"
            fill="#fff"></path>
        <g id="cloud-service_7_" data-name="cloud-service (7)"
            transform="translate(-14544.5 -13480)">
            <path id="Path_108472" data-name="Path 108472"
                d="M127.325,6.391a9.957,9.957,0,0,0-16.847-2.925.439.439,0,1,0,.666.573,9.078,9.078,0,0,1,15.422,2.833.6.6,0,0,0,.565.395h0a5.9,5.9,0,0,1,4.279,9.959.439.439,0,1,0,.638.6,6.782,6.782,0,0,0-4.725-11.44Z"
                transform="translate(-103.905)" fill="#030303"></path>
            <path id="Path_108473" data-name="Path 108473"
                d="M230.051,435.88v-.94a.439.439,0,0,0-.879,0v.94a1.611,1.611,0,1,0,.879,0Zm-.439,2.282a.732.732,0,1,1,.732-.732A.733.733,0,0,1,229.611,438.162Z"
                transform="translate(-214.641 -409.041)" fill="#030303"></path>
            <path id="Path_108474" data-name="Path 108474"
                d="M115.775,386.5a.439.439,0,0,0-.439.439v2.373a.381.381,0,0,1-.381.381h-.794a1.611,1.611,0,1,0,0,.879h.794a1.261,1.261,0,0,0,1.26-1.26v-2.373A.439.439,0,0,0,115.775,386.5Zm-3.164,4.365a.732.732,0,1,1,.732-.732A.733.733,0,0,1,112.611,390.865Z"
                transform="translate(-104.496 -363.854)" fill="#030303"></path>
            <path id="Path_108475" data-name="Path 108475"
                d="M25.459,101.756a1.614,1.614,0,0,0-1.55,1.172h-.794a.381.381,0,0,1-.381-.381V100.29c.712,0,1.125,0,1.15,0a6.7,6.7,0,0,0,2.5-.748.439.439,0,1,0-.41-.777,5.83,5.83,0,0,1-2.159.649c-.1,0-.649,0-1.519,0h0c-3.488,0-12.092-.013-17.1-.021A4.22,4.22,0,0,1,2.9,98.737a4.423,4.423,0,0,1,1.644-8.075.6.6,0,0,0,.495-.573A9,9,0,0,1,6.13,86.02a.439.439,0,1,0-.773-.418,9.858,9.858,0,0,0-1.183,4.237,5.3,5.3,0,0,0-1.745,9.636,5.1,5.1,0,0,0,2.765.794l2.014,0v2.274a.381.381,0,0,1-.381.381H6.032a1.611,1.611,0,1,0,0,.879h.794a1.261,1.261,0,0,0,1.26-1.26v-2.272l2.754,0V101.4a.439.439,0,0,0,.879,0V100.28l2.812,0v3.933a.439.439,0,0,0,.879,0v-3.932l2.813,0v5.54a1.261,1.261,0,0,0,1.26,1.26h.794a1.611,1.611,0,1,0,0-.879h-.794a.381.381,0,0,1-.381-.381v-5.539h2.754v2.256a1.261,1.261,0,0,0,1.26,1.26h.794a1.611,1.611,0,1,0,1.55-2.051ZM4.482,104.1a.732.732,0,1,1,.732-.732A.733.733,0,0,1,4.482,104.1Zm17.344,1.816a.732.732,0,1,1-.732.732A.733.733,0,0,1,21.826,105.916Zm3.633-1.816a.732.732,0,1,1,.732-.732A.733.733,0,0,1,25.459,104.1Z"
                transform="translate(0 -80.369)" fill="#030303"></path>
        </g>
    </g>
</svg>