
<svg width="30" height="30" viewBox="0 0 30 30" fill="none" xmlns="http://www.w3.org/2000/svg">
    <path class="blue"
        d="M4.6351 11.5545C5.28748 11.2841 5.59713 10.536 5.32672 9.88363C5.0563 9.23125 4.30823 8.9216 3.65585 9.19201C3.00347 9.46243 2.69382 10.2105 2.96424 10.8629C3.23465 11.5153 3.98272 11.8249 4.6351 11.5545Z"
        fill="#A8C9FF"></path>
    <path
        d="M3.43868 3.46629C3.64344 2.79061 3.26167 2.07687 2.58599 1.87212C1.91031 1.66737 1.19658 2.04913 0.991829 2.72481C0.787078 3.4005 1.16884 4.11423 1.84452 4.31898C2.5202 4.52373 3.23393 4.14197 3.43868 3.46629Z"
        fill="#A8C9FF"></path>
    <path class="blue"
        d="M2.89373 18.7453C3.49457 18.374 3.68059 17.5858 3.30921 16.985C2.93783 16.3841 2.14969 16.1981 1.54885 16.5695C0.948015 16.9409 0.761998 17.729 1.13337 18.3299C1.50475 18.9307 2.29289 19.1167 2.89373 18.7453Z"
        fill="#A8C9FF"></path>
    <path class="blue" fill-rule="evenodd" clip-rule="evenodd"
        d="M24.5801 10.3734C24.5801 9.66731 25.1524 9.09497 25.8585 9.09497C26.5645 9.09497 27.1369 9.66731 27.1369 10.3734C27.1369 11.0794 26.5645 11.6518 25.8585 11.6518C25.1524 11.6518 24.5801 11.0794 24.5801 10.3734Z"
        fill="#A8C9FF"></path>
    <path class="blue"
        d="M29.013 3.46876C29.2178 2.79308 28.836 2.07934 28.1603 1.87458C27.4846 1.66982 26.7708 2.05158 26.566 2.72726C26.3613 3.40294 26.7431 4.11668 27.4188 4.32144C28.0945 4.5262 28.8083 4.14444 29.013 3.46876Z"
        fill="#A8C9FF"></path>
    <path
        d="M29.0298 17.9572C29.1922 17.2702 28.767 16.5817 28.08 16.4193C27.393 16.2569 26.7045 16.6822 26.5421 17.3692C26.3797 18.0561 26.805 18.7447 27.4919 18.9071C28.1789 19.0695 28.8675 18.6442 29.0298 17.9572Z"
        fill="#A8C9FF"></path>
    <path class="blue" fill-rule="evenodd" clip-rule="evenodd"
        d="M2.2159 1.81641C1.50984 1.81641 0.9375 2.38875 0.9375 3.0948C0.9375 3.80086 1.50984 4.37326 2.2159 4.37326C2.56893 4.37326 2.8885 4.23018 3.11988 3.99879C3.35121 3.76746 3.49436 3.44783 3.49436 3.0948C3.49436 2.38875 2.92195 1.81641 2.2159 1.81641Z"
        fill="#A8C9FF"></path>
    <path
        d="M4.51373 11.5949C5.18941 11.3902 5.57117 10.6764 5.36642 10.0008C5.16167 9.32507 4.44794 8.94331 3.77226 9.14806C3.09658 9.35281 2.71481 10.0665 2.91956 10.7422C3.12432 11.4179 3.83805 11.7997 4.51373 11.5949Z"
        fill="#A8C9FF"></path>
    <path fill-rule="evenodd" class="blue" clip-rule="evenodd"
        d="M3.11988 16.748C2.88855 16.5166 2.56893 16.3735 2.2159 16.3735C1.50984 16.3735 0.9375 16.9459 0.9375 17.6519C0.9375 18.358 1.50984 18.9303 2.2159 18.9303C2.92195 18.9303 3.4943 18.358 3.4943 17.6519C3.4943 17.2989 3.35121 16.9793 3.11988 16.748Z"
        fill="#A8C9FF"></path>
    <path fill-rule="evenodd" class="blue" clip-rule="evenodd"
        d="M26.5059 3.0948C26.5059 3.44783 26.6489 3.7674 26.8803 3.99879C27.1117 4.23018 27.4313 4.37326 27.7843 4.37326C28.4904 4.37326 29.0627 3.80086 29.0627 3.0948C29.0627 2.38875 28.4903 1.81641 27.7843 1.81641C27.0782 1.81641 26.5059 2.38875 26.5059 3.0948Z"
        fill="#A8C9FF"></path>
    <path fill-rule="evenodd" class="blue" clip-rule="evenodd"
        d="M27.1369 10.3734C27.1369 9.66731 26.5645 9.09497 25.8585 9.09497C25.1525 9.09497 24.5801 9.66731 24.5801 10.3734C24.5801 11.0794 25.1524 11.6518 25.8585 11.6518C26.5645 11.6518 27.1369 11.0794 27.1369 10.3734Z"
        fill="#A8C9FF"></path>
    <path fill-rule="evenodd" class="blue" clip-rule="evenodd"
        d="M27.7843 16.3735C27.4312 16.3735 27.1116 16.5166 26.8803 16.748C26.6489 16.9793 26.5059 17.2989 26.5059 17.6519C26.5059 18.358 27.0782 18.9303 27.7843 18.9303C28.4903 18.9303 29.0627 18.358 29.0627 17.6519C29.0627 16.9459 28.4903 16.3735 27.7843 16.3735Z"
        fill="#A8C9FF"></path>
    <path fill-rule="evenodd" clip-rule="evenodd" class="blue"
        d="M21.2264 11.4776C19.9139 11.4776 19.2553 13.0678 20.1834 13.9958C20.3544 14.1668 20.3544 14.4441 20.1834 14.6151L19.2408 15.5577C19.0699 15.7286 18.7926 15.7286 18.6216 15.5577C17.6935 14.6296 16.1034 15.2882 16.1034 16.6007C16.1034 16.8426 15.9073 17.0386 15.6656 17.0386H14.3326C14.0909 17.0386 13.8948 16.8426 13.8948 16.6007C13.8948 15.2865 12.3059 14.6284 11.3766 15.5577C11.2057 15.7286 10.9284 15.7286 10.7575 15.5577L9.81488 14.6151C9.64391 14.4441 9.64391 14.1668 9.81488 13.9958C10.7429 13.0678 10.0844 11.4776 8.7718 11.4776C8.52992 11.4776 8.33398 11.2815 8.33398 11.0398V9.70678C8.33398 9.46502 8.52992 9.26896 8.7718 9.26896C10.0844 9.26896 10.7429 7.67879 9.81488 6.75072C9.64391 6.57975 9.64391 6.30248 9.81488 6.1315L10.7575 5.18891C10.9284 5.01793 11.2057 5.01793 11.3766 5.18891C12.3047 6.11697 13.8948 5.45838 13.8948 4.14582C13.8948 3.90395 14.0909 3.70801 14.3326 3.70801H15.6656C15.9073 3.70801 16.1034 3.90395 16.1034 4.14582C16.1034 5.45838 17.6936 6.11697 18.6216 5.18891C18.7926 5.01793 19.0699 5.01793 19.2408 5.18891L20.1834 6.1315C20.3544 6.30242 20.3544 6.57975 20.1834 6.75072C19.2553 7.67879 19.9139 9.26896 21.2264 9.26896C21.4683 9.26896 21.6642 9.46502 21.6642 9.70678V11.0398C21.6642 11.2815 21.4683 11.4776 21.2264 11.4776ZM14.9991 7.11617C13.2002 7.11617 11.7419 8.57445 11.7419 10.3733C11.7419 12.1722 13.2002 13.6305 14.9991 13.6305C16.798 13.6305 18.2562 12.1722 18.2562 10.3733C18.2562 8.57445 16.798 7.11617 14.9991 7.11617Z"
        fill="#fff"></path>
    <path fill-rule="evenodd" clip-rule="evenodd"
        d="M16.321 18.4278L16.3289 10.9178C16.3295 10.1492 15.7008 9.52 14.9324 9.51953C14.1641 9.51906 13.5346 10.1474 13.5342 10.9159L13.5353 21.7514C12.3206 21.3477 11.6841 21.5045 11.2435 22.1776C10.7472 22.936 10.936 23.9369 11.6698 24.4693C14.8589 26.7834 15.0152 27.9524 18.8869 28.174C22.2094 28.3643 24.7346 25.6635 24.7432 22.5836L24.7099 18.3819C24.7106 17.6134 24.0818 16.9842 23.3134 16.9838C22.5452 16.9833 21.9156 17.6116 21.9162 18.3811C21.9177 17.6134 21.289 16.9843 20.5205 16.9838C19.7522 16.9833 19.1227 17.6116 19.123 18.3811C19.1243 17.6134 18.4954 16.9844 17.7271 16.9838C16.9589 16.9832 16.3173 17.6593 16.321 18.4278Z"
        fill="white"></path>
    <path fill-rule="evenodd" clip-rule="evenodd"
        d="M27.7826 18.5202C27.3028 18.5202 26.9141 18.1306 26.9141 17.652C26.9141 17.1733 27.3029 16.7835 27.7826 16.7835C28.2623 16.7835 28.651 17.1733 28.651 17.652C28.651 18.1306 28.2623 18.5202 27.7826 18.5202ZM19.8944 14.3249L18.9514 15.2676C18.9487 15.2695 18.9432 15.2759 18.9321 15.2759C18.9184 15.2759 18.9129 15.2695 18.9101 15.2676C18.5021 14.8587 17.9424 14.6613 17.3771 14.7258C17.151 14.7515 16.9332 14.8177 16.7347 14.918V13.6042C17.9175 12.9693 18.6675 11.7285 18.6675 10.3734C18.6675 8.35137 17.0215 6.70617 14.9977 6.70617C12.9767 6.70617 11.3307 8.35137 11.3307 10.3734C11.3307 11.6795 12.0118 12.8648 13.1229 13.5251V14.8519C12.9161 14.7681 12.6927 14.7204 12.4667 14.7135C11.9484 14.6972 11.4603 14.8946 11.0853 15.2677C11.0853 15.2696 11.0771 15.2759 11.0661 15.2759C11.055 15.2759 11.0495 15.2696 11.0468 15.2677L10.1038 14.325C10.1038 14.3234 10.0956 14.3167 10.0956 14.3057C10.0956 14.2941 10.1038 14.2881 10.1038 14.2859C10.6525 13.7372 10.8096 12.9497 10.5119 12.2321C10.2141 11.5138 9.54689 11.0678 8.77211 11.0678C8.75559 11.0678 8.74451 11.0551 8.74451 11.0396V9.7074C8.74451 9.69141 8.75553 9.67928 8.77211 9.67928C9.54684 9.67928 10.2141 9.23344 10.5119 8.51496C10.8096 7.79725 10.6525 7.00957 10.1038 6.46113C10.1038 6.45896 10.0956 6.45316 10.0956 6.44127C10.0956 6.43025 10.1038 6.42363 10.1038 6.42199L11.0468 5.47934C11.0495 5.4774 11.055 5.47107 11.0661 5.47107C11.0771 5.47107 11.0853 5.4774 11.0853 5.47934C11.634 6.02824 12.4226 6.18404 13.1394 5.88686C13.859 5.58938 14.3056 4.9224 14.3056 4.14627C14.3056 4.1308 14.3167 4.11873 14.3332 4.11873H15.665C15.6815 4.11873 15.6926 4.13086 15.6926 4.14627C15.6926 4.9224 16.1392 5.58938 16.8588 5.88686C17.5756 6.1841 18.3642 6.0283 18.9101 5.47934C18.9129 5.4774 18.9184 5.47107 18.9321 5.47107C18.9432 5.47107 18.9487 5.4774 18.9514 5.47934L19.8944 6.42199C19.8944 6.42363 19.9026 6.43025 19.9026 6.44127C19.9026 6.45311 19.8944 6.45891 19.8944 6.46113C19.3429 7.00951 19.1886 7.79725 19.4863 8.51496C19.7841 9.2335 20.4486 9.67928 21.2261 9.67928C21.2426 9.67928 21.2537 9.69141 21.2537 9.7074V11.0396C21.2537 11.0551 21.2427 11.0678 21.2261 11.0678C20.4486 11.0678 19.7841 11.5138 19.4863 12.2321C19.1886 12.9497 19.3429 13.7372 19.8944 14.2859C19.8944 14.2881 19.9026 14.2941 19.9026 14.3057C19.9026 14.3166 19.8944 14.3232 19.8944 14.3249ZM17.0407 17.6906C16.8449 17.8869 16.7319 18.1494 16.7291 18.4135V18.4284C16.7291 18.6545 16.5471 18.8372 16.3211 18.8378H16.3183C16.095 18.8378 15.9103 18.6556 15.9103 18.43C15.9103 18.4237 15.9103 18.4171 15.9103 18.4107L15.9158 10.9171C15.9186 10.6552 15.8138 10.4079 15.6263 10.2204C15.4388 10.0329 15.1934 9.92977 14.9315 9.92977C14.9315 9.92977 14.9315 9.92977 14.9287 9.92977C14.6668 9.92977 14.4214 10.0329 14.2339 10.2198C14.0464 10.4067 13.9444 10.654 13.9444 10.9165V21.751C13.9444 21.8831 13.881 22.0071 13.7735 22.084C13.666 22.1613 13.5281 22.1825 13.4041 22.1408C12.9767 21.9983 12.6569 21.9404 12.4115 21.9404C11.9428 21.9404 11.747 22.1554 11.5843 22.4019C11.2121 22.9726 11.3554 23.7345 11.9096 24.137C12.7368 24.7375 13.3516 25.2539 13.8948 25.7091C15.4057 26.973 16.1639 27.6074 18.9101 27.7646C20.3189 27.8448 21.6562 27.3615 22.6763 26.4018C23.724 25.415 24.3278 24.0229 24.3306 22.5826L24.2975 18.3848C24.2975 18.1196 24.1954 17.8723 24.0079 17.6848C23.8204 17.4973 23.5723 17.3942 23.3104 17.3942C23.0485 17.3942 22.8031 17.4973 22.6156 17.6842C22.4281 17.8703 22.3261 18.1165 22.3261 18.3779V18.3821C22.3233 18.6081 22.1413 18.7915 21.9153 18.7915C21.6892 18.791 21.5045 18.6076 21.5045 18.3816C21.5045 18.3807 21.5045 18.3807 21.5045 18.3802C21.5045 18.3796 21.5045 18.3786 21.5045 18.378C21.5045 18.1177 21.4025 17.8718 21.215 17.6854C21.0275 17.4979 20.7821 17.3943 20.5174 17.3943C20.2555 17.3943 20.0073 17.4968 19.8226 17.6843C19.6351 17.8704 19.5331 18.1172 19.5303 18.3785V18.3821C19.5303 18.6081 19.3483 18.7915 19.1223 18.7915C18.8934 18.791 18.7115 18.6076 18.7115 18.3816C18.7115 18.3807 18.7115 18.3807 18.7115 18.3802V18.3796C18.7115 18.3791 18.7115 18.3791 18.7115 18.3785C18.7115 18.1177 18.6095 17.8717 18.422 17.6848C18.2345 17.4973 17.9863 17.3942 17.7244 17.3942C17.4736 17.3942 17.2309 17.4995 17.0407 17.6906ZM16.2081 9.64078C16.55 9.98297 16.7375 10.4365 16.7375 10.9182L16.7347 12.6287C17.424 12.0971 17.8458 11.2675 17.8458 10.3734C17.8458 8.80377 16.5693 7.52637 14.9977 7.52637C13.4289 7.52637 12.1523 8.80377 12.1523 10.3734C12.1523 11.2102 12.5107 11.9835 13.1228 12.5162V10.916C13.1228 10.4343 13.3103 9.98133 13.655 9.6392C13.9969 9.2976 14.449 9.10957 14.9287 9.10957H14.9315C15.4112 9.10951 15.8662 9.29812 16.2081 9.64078ZM2.21559 18.5202C1.73582 18.5202 1.34711 18.1306 1.34711 17.652C1.34711 17.1733 1.73588 16.7835 2.21559 16.7835C2.6926 16.7835 3.08406 17.1733 3.08406 17.652C3.08406 18.1306 2.69254 18.5202 2.21559 18.5202ZM4.14004 11.2416C3.66303 11.2416 3.27432 10.852 3.27432 10.3734C3.27432 9.89473 3.66309 9.5049 4.14004 9.5049C4.6198 9.5049 5.00852 9.89479 5.00852 10.3734C5.00852 10.852 4.6198 11.2416 4.14004 11.2416ZM2.21559 3.96334C1.73582 3.96334 1.34711 3.57375 1.34711 3.09486C1.34705 2.61615 1.73582 2.22656 2.21559 2.22656C2.6926 2.22656 3.08406 2.61615 3.08406 3.0948C3.08406 3.57375 2.69254 3.96334 2.21559 3.96334ZM27.7826 2.22656C28.2623 2.22656 28.651 2.61615 28.651 3.0948C28.651 3.57369 28.2623 3.96328 27.7826 3.96328C27.3028 3.96328 26.9141 3.57369 26.9141 3.0948C26.914 2.61615 27.3028 2.22656 27.7826 2.22656ZM25.858 9.5049C26.3351 9.5049 26.7238 9.89479 26.7238 10.3734C26.7238 10.852 26.335 11.2416 25.858 11.2416C25.3783 11.2416 24.9896 10.852 24.9896 10.3734C24.9896 9.89473 25.3783 9.5049 25.858 9.5049ZM27.7826 15.9632C27.4655 15.9632 27.1677 16.0517 26.9141 16.2039L24.4326 13.7225C24.3582 13.6458 24.2534 13.6025 24.1431 13.6025H20.3824C20.1067 13.251 20.1232 12.835 20.2445 12.5454C20.3741 12.2278 20.7022 11.8879 21.2261 11.8879C21.6948 11.8879 22.0753 11.5071 22.0753 11.0395V10.7836H24.2176C24.4023 11.517 25.0668 12.0621 25.8581 12.0621C26.7873 12.0621 27.5455 11.3044 27.5455 10.3733C27.5455 9.44221 26.7873 8.68459 25.8581 8.68459C25.0668 8.68459 24.4023 9.22969 24.2176 9.96305H22.0753V9.70717C22.0753 9.23953 21.6948 8.8585 21.2261 8.8585C20.7023 8.8585 20.3741 8.51883 20.2445 8.20066C20.1232 7.91174 20.1067 7.49566 20.3824 7.1441H24.1431C24.2534 7.1441 24.3582 7.1008 24.4326 7.02393L26.9141 4.54248C27.1677 4.69494 27.4655 4.78348 27.7826 4.78348C28.7145 4.78348 29.4727 4.0258 29.4727 3.09475C29.4727 2.16363 28.7145 1.40625 27.7826 1.40625C26.8506 1.40625 26.0952 2.16363 26.0952 3.09475C26.0952 3.4118 26.1834 3.70875 26.3351 3.9627L23.975 6.32391H20.7133C20.6885 6.14168 20.6058 5.97346 20.4734 5.84168L19.5304 4.89902C19.3705 4.73912 19.1583 4.65035 18.9321 4.65035C18.7033 4.65035 18.491 4.73912 18.3311 4.89902C17.9617 5.26934 17.4902 5.26049 17.1704 5.12871C16.8533 4.99664 16.5142 4.66992 16.5142 4.14609C16.5142 3.67846 16.1337 3.29824 15.665 3.29824H14.3332C13.8646 3.29824 13.484 3.67846 13.484 4.14609C13.484 4.66992 13.1449 4.9967 12.8251 5.12871C12.508 5.26049 12.0365 5.26934 11.6671 4.89902C11.5072 4.73912 11.2922 4.65035 11.0661 4.65035C10.8399 4.65035 10.6277 4.73912 10.4678 4.89902L9.5248 5.84168C9.39244 5.97346 9.30977 6.14168 9.28492 6.32391H6.02324L3.66303 3.96275C3.81467 3.70881 3.90291 3.41191 3.90291 3.0948C3.90291 2.16369 3.14471 1.40631 2.21553 1.40631C1.28359 1.40631 0.525391 2.16369 0.525391 3.0948C0.525391 4.02586 1.28359 4.78354 2.21553 4.78354C2.53258 4.78354 2.8276 4.695 3.08125 4.54254L5.56545 7.02398C5.63992 7.10092 5.74469 7.14416 5.85496 7.14416H9.61568C9.89137 7.49566 9.87484 7.91174 9.75355 8.20072C9.62395 8.51889 9.29588 8.85855 8.77199 8.85855C8.3033 8.85855 7.92279 9.23959 7.92279 9.70723V9.96311H5.77779C5.5958 9.22969 4.93135 8.68465 4.14004 8.68465C3.21086 8.68465 2.45266 9.44232 2.45266 10.3734C2.45266 11.3045 3.21086 12.0621 4.14004 12.0621C4.93135 12.0621 5.5958 11.517 5.77779 10.7837H7.92285V11.0395C7.92285 11.5072 8.30336 11.8879 8.77205 11.8879C9.29588 11.8879 9.624 12.2279 9.75361 12.5455C9.8749 12.835 9.89148 13.251 9.61574 13.6026H5.85502C5.74475 13.6026 5.63998 13.6459 5.56551 13.7225L3.08131 16.204C2.82766 16.0518 2.53264 15.9633 2.21559 15.9633C1.28365 15.9633 0.525449 16.721 0.525449 17.652C0.525449 18.5828 1.28365 19.3407 2.21559 19.3407C3.14477 19.3407 3.90297 18.5828 3.90297 17.652C3.90297 17.335 3.81473 17.038 3.66309 16.7841L6.02318 14.4229H9.28486C9.30971 14.6051 9.39238 14.7733 9.52475 14.9051L10.4677 15.8477C10.6276 16.0079 10.8399 16.0962 11.066 16.0962C11.2921 16.0962 11.5071 16.0079 11.6671 15.8477C11.9372 15.5767 12.2378 15.5268 12.4418 15.5331C12.6927 15.5409 12.9354 15.6374 13.1229 15.7997V21.2087C12.3371 21.0292 11.4824 21.0634 10.8979 21.9534C10.2858 22.8903 10.5174 24.1412 11.4273 24.8016C12.2324 25.3847 12.8362 25.8915 13.3683 26.3378C14.9647 27.6745 15.8443 28.4109 18.8633 28.5838C18.9791 28.5901 19.0977 28.5937 19.2135 28.5937C20.7216 28.5937 22.1388 28.034 23.2388 26.9987C24.4492 25.8587 25.1468 24.2496 25.1523 22.5804L25.1192 18.3821C25.1192 17.901 24.9317 17.4474 24.5898 17.1053C24.2479 16.7626 23.793 16.5737 23.3133 16.5737C23.3105 16.5737 23.3105 16.5737 23.3105 16.5737C22.8307 16.5737 22.3758 16.762 22.034 17.1042C21.9926 17.1464 21.9513 17.1902 21.9154 17.236C21.8768 17.1913 21.8382 17.148 21.7969 17.1059C21.455 16.7631 21.0001 16.5737 20.5204 16.5737H20.5176C20.0379 16.5737 19.5829 16.762 19.2439 17.1033C19.1997 17.1463 19.1584 17.1902 19.1226 17.2365C19.084 17.1908 19.0454 17.1469 19.0013 17.1047C18.6594 16.7626 18.2072 16.5737 17.7275 16.5737C17.7248 16.5737 17.7248 16.5737 17.7248 16.5737C17.3691 16.5737 17.0272 16.6823 16.7322 16.8844V15.9492C16.9087 15.7248 17.1761 15.5742 17.4711 15.5409C17.7909 15.5045 18.097 15.6128 18.3313 15.8477C18.4912 16.0079 18.7036 16.0962 18.9324 16.0962C19.1585 16.0962 19.3708 16.0079 19.5307 15.8477L20.4736 14.9051C20.606 14.7733 20.6887 14.6051 20.7135 14.4229H23.9752L26.3353 16.7841C26.1837 17.038 26.0954 17.335 26.0954 17.652C26.0954 18.5828 26.8509 19.3407 27.7828 19.3407C28.7147 19.3407 29.4729 18.5828 29.4729 17.652C29.4726 16.7209 28.7144 15.9632 27.7826 15.9632Z"
        fill="black"></path>
</svg>