<svg xmlns="http://www.w3.org/2000/svg" width="34" height="34" viewBox="0 0 34 34">
    <g id="Group_102221" data-name="Group 102221" transform="translate(14487.5 13497)">
        <g id="Rectangle_33415" data-name="Rectangle 33415" transform="translate(-14487.5 -13497)"
            fill="#fff" stroke="#707070" stroke-width="1" opacity="0">
            <rect width="34" height="34" stroke="none"></rect>
            <rect x="0.5" y="0.5" width="33" height="33" fill="none"></rect>
        </g>
        <g id="manufacturing" transform="translate(-14486 -13495.789)">
            <path class="blue" data-name="Path 108499"
                d="M18.374,24.095V21.761l-1.627-3.337-2.465-.418-.794-1.814V14.323l1.773-1.089h1.486l2-3.569-.371-1.926S7.493,6.108,7.315,15.6,18.374,24.095,18.374,24.095Z"
                fill="#fff" stroke="#fff" stroke-width="1"></path>
            <path id="Path_108490" data-name="Path 108490"
                d="M27.368,13.158a2.636,2.636,0,0,0-2.578,2.105H18.368a2.622,2.622,0,0,0-.886-1.472l1.778-3.265h1.846a2.632,2.632,0,1,0,0-1.053H19.474V6.007l1.8-1.8h2.467a2.632,2.632,0,1,0,0-1.053H21.27a1.059,1.059,0,0,0-.744.308l-.451.451a11.762,11.762,0,0,0-1.128-.354V1.053A1.054,1.054,0,0,0,17.895,0h-4.21a1.054,1.054,0,0,0-1.053,1.053v2.51A12.46,12.46,0,0,0,9.374,4.908L7.608,3.143a1.042,1.042,0,0,0-.751-.316h0a1.034,1.034,0,0,0-.745.312L3.143,6.107a1.048,1.048,0,0,0,0,1.5l1.77,1.77a12.482,12.482,0,0,0-1.346,3.258H1.053A1.054,1.054,0,0,0,0,13.684v4.21a1.054,1.054,0,0,0,1.053,1.053h2.51a12.482,12.482,0,0,0,1.346,3.258L3.143,23.97a1.048,1.048,0,0,0,0,1.5l2.969,2.969a1.039,1.039,0,0,0,.75.317h0A1.037,1.037,0,0,0,7.6,28.44l1.77-1.77a12.459,12.459,0,0,0,3.258,1.345v2.51a1.054,1.054,0,0,0,1.053,1.053h4.21a1.054,1.054,0,0,0,1.053-1.053V28.015a11.762,11.762,0,0,0,1.128-.354l.451.451a1.059,1.059,0,0,0,.744.308h2.467a2.632,2.632,0,1,0,0-1.053H21.27l-1.8-1.8V22.105h1.632a2.631,2.631,0,1,0,0-1.053H19.26l-1.778-3.265a2.622,2.622,0,0,0,.886-1.472H24.79a2.632,2.632,0,1,0,2.578-3.158ZM26.316,2.105a1.579,1.579,0,1,1-1.579,1.579A1.579,1.579,0,0,1,26.316,2.105Zm0,24.211a1.579,1.579,0,1,1-1.579,1.579A1.579,1.579,0,0,1,26.316,26.316ZM15.789,17.368a1.579,1.579,0,1,1,1.579-1.579A1.579,1.579,0,0,1,15.789,17.368Zm7.895-8.947A1.579,1.579,0,1,1,22.105,10,1.579,1.579,0,0,1,23.684,8.421ZM18.307,27.086a.526.526,0,0,0-.412.514v2.926h-4.21V27.6a.526.526,0,0,0-.414-.514,11.426,11.426,0,0,1-3.694-1.525.527.527,0,0,0-.654.072L6.857,27.7,3.883,24.719l2.063-2.063A.526.526,0,0,0,6.018,22a11.44,11.44,0,0,1-1.525-3.693.526.526,0,0,0-.514-.414H1.053v-4.21H3.979a.526.526,0,0,0,.514-.414A11.439,11.439,0,0,1,6.018,9.577a.526.526,0,0,0-.072-.654L3.883,6.856,6.86,3.883,8.923,5.946a.526.526,0,0,0,.654.072,11.421,11.421,0,0,1,3.693-1.525.527.527,0,0,0,.414-.514V1.053h4.21V3.979a.526.526,0,0,0,.412.514c.325.073.638.158.941.252l-.518.518a1.045,1.045,0,0,0-.308.744v.682a9.474,9.474,0,1,0,0,18.2v.682a1.046,1.046,0,0,0,.308.744l.518.518C18.945,26.928,18.632,27.014,18.307,27.086ZM23.684,20a1.579,1.579,0,1,1-1.579,1.579A1.579,1.579,0,0,1,23.684,20Zm-5.263,1.713v2.07a8.421,8.421,0,1,1,0-15.986v2.07l-1.863,3.42a2.606,2.606,0,0,0-.769-.128,2.632,2.632,0,1,0,0,5.263,2.605,2.605,0,0,0,.769-.128Zm8.947-4.344a1.579,1.579,0,1,1,1.579-1.579A1.579,1.579,0,0,1,27.368,17.368Zm0,0"
                stroke="#fff" stroke-width="0.3"></path>
        </g>
    </g>
</svg>