<svg width="30" height="30" viewBox="0 0 30 30" fill="none" xmlns="http://www.w3.org/2000/svg">
    <path
        d="M20.5 5.5L19.5 7V7.5L20.5 8V8.5L20 9.5L20.5 10L21.5 9.5L22.5 10V10.5H23.5V10L24.5 9.5L25.5 10L26 9.5L25.5 8.5L26 7.5H27L26.5 6.5L25.5 6V5.5L26 5L25.5 4L24 4.5L23.5 3.5H22.5L22 4.5H21.5H20.5V5.5Z"
        class="blue" fill="#fff" stroke="black" stroke-width="0.5"></path>
    <path d="M17.5 4H6.5V18H23.5V12.5H18L17.5 12V9L15 7.5L17.5 6V4Z" fill="#fff" class="blue"
        stroke="black" stroke-width="0.5"></path>
    <path d="M23.4375 19.6875H24.375V20.625H23.4375V19.6875Z" fill="black"></path>
    <path d="M7.96875 2.34375H8.90625V3.28125H7.96875V2.34375Z" fill="black"></path>
    <path d="M9.84375 2.34375H10.7812V3.28125H9.84375V2.34375Z" fill="black"></path>
    <path d="M11.7188 2.34375H12.6562V3.28125H11.7188V2.34375Z" fill="black"></path>
    <path
        d="M26.8327 6.10781L26.0508 5.91234C26.0175 5.81859 25.9805 5.73094 25.9392 5.64281L26.3536 4.95234C26.4074 4.8627 26.4298 4.75763 26.417 4.65383C26.4043 4.55004 26.3572 4.45349 26.2833 4.37953L25.6205 3.71672C25.5465 3.64278 25.45 3.5957 25.3462 3.58296C25.2424 3.57022 25.1373 3.59255 25.0477 3.64641L24.3572 4.06078C24.2691 4.01953 24.1795 3.9825 24.0877 3.94922L23.8922 3.16734C23.8668 3.06598 23.8083 2.976 23.7259 2.91171C23.6435 2.84742 23.542 2.8125 23.4375 2.8125H22.5C22.3955 2.8125 22.294 2.84742 22.2116 2.91171C22.1292 2.976 22.0707 3.06598 22.0453 3.16734L21.8498 3.94922C21.7561 3.9825 21.6684 4.01953 21.5803 4.06078L20.8898 3.64641C20.8002 3.59255 20.6951 3.57022 20.5913 3.58296C20.4875 3.5957 20.391 3.64278 20.317 3.71672L19.6542 4.37953C19.5803 4.45349 19.5332 4.55004 19.5205 4.65383C19.5077 4.75763 19.5301 4.8627 19.5839 4.95234L19.9983 5.64281C19.957 5.73094 19.92 5.82047 19.8867 5.91234L19.1048 6.10781C19.0035 6.13321 18.9135 6.19174 18.8492 6.27412C18.7849 6.3565 18.75 6.458 18.75 6.5625V7.5C18.75 7.6045 18.7849 7.706 18.8492 7.78838C18.9135 7.87076 19.0035 7.92929 19.1048 7.95469L19.8867 8.15016C19.92 8.24391 19.957 8.33156 19.9983 8.41969L19.5839 9.11016C19.5301 9.1998 19.5077 9.30487 19.5205 9.40867C19.5332 9.51246 19.5803 9.60901 19.6542 9.68297L20.317 10.3458C20.391 10.4197 20.4875 10.4668 20.5913 10.4795C20.6951 10.4923 20.8002 10.4699 20.8898 10.4161L21.5803 10.0017C21.6684 10.043 21.758 10.08 21.8498 10.1133L22.0453 10.8952C22.0707 10.9965 22.1292 11.0865 22.2116 11.1508C22.294 11.2151 22.3955 11.25 22.5 11.25H23.4375C23.542 11.25 23.6435 11.2151 23.7259 11.1508C23.8083 11.0865 23.8668 10.9965 23.8922 10.8952L24.0877 10.1133C24.1814 10.08 24.2691 10.043 24.3572 10.0017L25.0477 10.4161C25.1373 10.4699 25.2424 10.4923 25.3462 10.4795C25.45 10.4668 25.5465 10.4197 25.6205 10.3458L26.2833 9.68297C26.3572 9.60901 26.4043 9.51246 26.417 9.40867C26.4298 9.30487 26.4074 9.1998 26.3536 9.11016L25.9392 8.41969C25.9805 8.33156 26.0175 8.24203 26.0508 8.15016L26.8327 7.95469C26.934 7.92929 27.024 7.87076 27.0883 7.78838C27.1526 7.706 27.1875 7.6045 27.1875 7.5V6.5625C27.1875 6.458 27.1526 6.3565 27.0883 6.27412C27.024 6.19174 26.934 6.13321 26.8327 6.10781ZM26.25 7.13391L25.5689 7.30453C25.4878 7.32483 25.4137 7.36643 25.3541 7.42503C25.2945 7.48363 25.2517 7.55709 25.23 7.63781C25.1766 7.83468 25.0978 8.02376 24.9956 8.20031C24.9537 8.27274 24.932 8.35505 24.9326 8.43871C24.9333 8.52238 24.9563 8.60434 24.9994 8.67609L25.3598 9.27703L25.2145 9.42234L24.6136 9.06188C24.5418 9.01885 24.4599 8.99581 24.3762 8.99515C24.2926 8.99449 24.2102 9.01623 24.1378 9.05812C23.9613 9.1603 23.7722 9.23909 23.5753 9.2925C23.4946 9.31415 23.4211 9.35699 23.3625 9.41658C23.3039 9.47616 23.2623 9.55034 23.242 9.63141L23.0714 10.3125H22.8661L22.6955 9.63141C22.6752 9.55034 22.6336 9.47616 22.575 9.41658C22.5164 9.35699 22.4429 9.31415 22.3622 9.2925C22.1653 9.23909 21.9762 9.1603 21.7997 9.05812C21.7273 9.01623 21.6449 8.99449 21.5613 8.99515C21.4776 8.99581 21.3957 9.01885 21.3239 9.06188L20.723 9.42234L20.5777 9.27703L20.9381 8.67609C20.9812 8.60434 21.0042 8.52238 21.0049 8.43871C21.0055 8.35505 20.9838 8.27274 20.9419 8.20031C20.8397 8.02376 20.7609 7.83468 20.7075 7.63781C20.6858 7.55709 20.643 7.48363 20.5834 7.42503C20.5238 7.36643 20.4497 7.32483 20.3686 7.30453L19.6875 7.13391V6.92859L20.3686 6.75797C20.4497 6.73767 20.5238 6.69607 20.5834 6.63747C20.643 6.57887 20.6858 6.50541 20.7075 6.42469C20.7609 6.22782 20.8397 6.03874 20.9419 5.86219C20.9838 5.78976 21.0055 5.70745 21.0049 5.62379C21.0042 5.54012 20.9812 5.45816 20.9381 5.38641L20.5781 4.78406L20.7234 4.63875L21.3244 4.99922C21.3961 5.04225 21.4781 5.06529 21.5618 5.06595C21.6454 5.06661 21.7277 5.04486 21.8002 5.00297C21.9767 4.90079 22.1658 4.82201 22.3627 4.76859C22.4434 4.74694 22.5168 4.70411 22.5754 4.64452C22.634 4.58493 22.6756 4.51076 22.6959 4.42969L22.8661 3.75H23.0714L23.242 4.43109C23.2623 4.51217 23.3039 4.58634 23.3625 4.64592C23.4211 4.70551 23.4946 4.74835 23.5753 4.77C23.7722 4.82341 23.9613 4.9022 24.1378 5.00437C24.2102 5.04627 24.2926 5.06801 24.3762 5.06735C24.4599 5.06669 24.5418 5.04365 24.6136 5.00063L25.2159 4.64062L25.3613 4.78594L25.0008 5.38687C24.9578 5.45863 24.9347 5.54059 24.9341 5.62425C24.9334 5.70792 24.9551 5.79023 24.997 5.86266C25.0992 6.03921 25.178 6.22829 25.2314 6.42516C25.2531 6.50588 25.2959 6.57934 25.3555 6.63794C25.4151 6.69654 25.4892 6.73814 25.5703 6.75844L26.25 6.92859V7.13391Z"
        fill="black"></path>
    <path
        d="M22.9688 5.15625C22.5979 5.15625 22.2354 5.26622 21.9271 5.47224C21.6187 5.67827 21.3784 5.97111 21.2365 6.31372C21.0946 6.65633 21.0574 7.03333 21.1298 7.39704C21.2021 7.76076 21.3807 8.09485 21.6429 8.35707C21.9051 8.6193 22.2392 8.79788 22.603 8.87022C22.9667 8.94257 23.3437 8.90544 23.6863 8.76352C24.0289 8.62161 24.3217 8.38129 24.5278 8.07294C24.7338 7.7646 24.8438 7.40209 24.8438 7.03125C24.8438 6.53397 24.6462 6.05706 24.2946 5.70542C23.9429 5.35379 23.466 5.15625 22.9688 5.15625ZM22.9688 7.96875C22.7833 7.96875 22.6021 7.91377 22.4479 7.81075C22.2937 7.70774 22.1736 7.56132 22.1026 7.39002C22.0317 7.21871 22.0131 7.03021 22.0493 6.84835C22.0854 6.6665 22.1747 6.49945 22.3058 6.36834C22.4369 6.23723 22.604 6.14794 22.7859 6.11176C22.9677 6.07559 23.1562 6.09416 23.3275 6.16511C23.4988 6.23607 23.6452 6.35623 23.7483 6.5104C23.8513 6.66457 23.9063 6.84583 23.9063 7.03125C23.9063 7.27989 23.8075 7.51835 23.6317 7.69416C23.4558 7.86998 23.2174 7.96875 22.9688 7.96875Z"
        fill="black"></path>
    <path
        d="M27.6562 0.9375H7.5C7.12738 0.938613 6.77034 1.08713 6.50686 1.35061C6.24338 1.61409 6.09486 1.97113 6.09375 2.34375V2.8125H2.8125C2.56409 2.81324 2.32606 2.91225 2.15041 3.08791C1.97475 3.26356 1.87574 3.50159 1.875 3.75V21.5625C1.87574 21.8109 1.97475 22.0489 2.15041 22.2246C2.32606 22.4002 2.56409 22.4993 2.8125 22.5H11.1891L10.8375 25.3125H8.90625C8.65784 25.3132 8.41981 25.4123 8.24416 25.5879C8.0685 25.7636 7.96949 26.0016 7.96875 26.25V28.125C7.96949 28.3734 8.0685 28.6114 8.24416 28.7871C8.41981 28.9627 8.65784 29.0618 8.90625 29.0625H21.0938C21.3422 29.0618 21.5802 28.9627 21.7558 28.7871C21.9315 28.6114 22.0305 28.3734 22.0312 28.125V26.25C22.0305 26.0016 21.9315 25.7636 21.7558 25.5879C21.5802 25.4123 21.3422 25.3132 21.0938 25.3125H19.1625L18.8109 22.5H27.1875C27.4359 22.4993 27.6739 22.4002 27.8496 22.2246C28.0252 22.0489 28.1243 21.8109 28.125 21.5625V13.0406C28.3982 12.9433 28.6347 12.7642 28.8025 12.5277C28.9702 12.2912 29.061 12.0087 29.0625 11.7188V2.34375C29.0614 1.97113 28.9129 1.61409 28.6494 1.35061C28.3859 1.08713 28.0289 0.938613 27.6562 0.9375ZM7.03125 2.34375C7.03125 2.21943 7.08064 2.1002 7.16854 2.01229C7.25645 1.92439 7.37568 1.875 7.5 1.875H16.9594C16.9048 2.02532 16.8763 2.18384 16.875 2.34375V3.75H7.03125V2.34375ZM7.03125 4.6875H16.875V5.82656L14.7609 7.09688C14.691 7.13838 14.633 7.19737 14.5928 7.26805C14.5526 7.33873 14.5314 7.41867 14.5314 7.5C14.5314 7.58133 14.5526 7.66127 14.5928 7.73195C14.633 7.80263 14.691 7.86162 14.7609 7.90313L16.875 9.17344V11.7188C16.8761 12.0914 17.0246 12.4484 17.2881 12.7119C17.5516 12.9754 17.9086 13.1239 18.2812 13.125H22.9688V17.8125H7.03125V4.6875ZM21.0938 26.25V28.125H8.90625V26.25H21.0938ZM11.7797 25.3125L12.1312 22.5H17.8687L18.2203 25.3125H11.7797ZM27.1875 21.5625H2.8125V3.75H6.09375V4.6875H4.6875C4.43909 4.68824 4.20106 4.78725 4.02541 4.96291C3.84975 5.13856 3.75074 5.37659 3.75 5.625V17.8125C3.75074 18.0609 3.84975 18.2989 4.02541 18.4746C4.20106 18.6502 4.43909 18.7493 4.6875 18.75H25.3125C25.5609 18.7493 25.7989 18.6502 25.9746 18.4746C26.1502 18.2989 26.2493 18.0609 26.25 17.8125V13.125H27.1875V21.5625ZM6.09375 5.625V17.8125H4.6875V5.625H6.09375ZM23.9062 17.8125V13.125H25.3125V17.8125H23.9062ZM28.125 11.7188C28.125 11.8431 28.0756 11.9623 27.9877 12.0502C27.8998 12.1381 27.7806 12.1875 27.6562 12.1875H18.2812C18.1569 12.1875 18.0377 12.1381 17.9498 12.0502C17.8619 11.9623 17.8125 11.8431 17.8125 11.7188V8.90625C17.813 8.82481 17.792 8.74468 17.7517 8.67392C17.7113 8.60316 17.6531 8.54426 17.5828 8.50312L15.9094 7.5L17.5828 6.49687C17.6531 6.45574 17.7113 6.39684 17.7517 6.32608C17.792 6.25532 17.813 6.17519 17.8125 6.09375V2.34375C17.8125 2.21943 17.8619 2.1002 17.9498 2.01229C18.0377 1.92439 18.1569 1.875 18.2812 1.875H27.6562C27.7806 1.875 27.8998 1.92439 27.9877 2.01229C28.0756 2.1002 28.125 2.21943 28.125 2.34375V11.7188Z"
        fill="black"></path>
    <path d="M8.90625 6.5625H13.5938V7.5H8.90625V6.5625Z" fill="black"></path>
    <path d="M8.90625 8.4375H13.5938V9.375H8.90625V8.4375Z" fill="black"></path>
    <path d="M8.90625 10.3125H15.4688V11.25H8.90625V10.3125Z" fill="black"></path>
    <path d="M8.90625 12.1875H13.5938V13.125H8.90625V12.1875Z" fill="black"></path>
    <path d="M12.6562 14.0625H21.0938V15H12.6562V14.0625Z" fill="black"></path>
    <path d="M8.90625 14.0625H11.7188V15H8.90625V14.0625Z" fill="black"></path>
    <path d="M8.90625 15.9375H21.0938V16.875H8.90625V15.9375Z" fill="black"></path>
    <path d="M14.5312 12.1875H16.4062V13.125H14.5312V12.1875Z" fill="black"></path>
</svg>


                                                      