<svg xmlns="http://www.w3.org/2000/svg" width="34" height="34" viewBox="0 0 34 34">
    <g id="Group_102239" data-name="Group 102239" transform="translate(14507 13474)">
        <g id="Rectangle_33415" data-name="Rectangle 33415" transform="translate(-14507 -13474)"
            fill="#fff" stroke="#707070" stroke-width="1" opacity="0">
            <rect width="34" height="34" stroke="none"></rect>
            <rect x="0.5" y="0.5" width="33" height="33" fill="none"></rect>
        </g>
        <g class="blue" data-name="Rectangle 33448" transform="translate(-14504 -13463.138)"
            fill="#fff" stroke="#fff" stroke-width="1">
            <path d="M0,0H28a0,0,0,0,1,0,0V17a2,2,0,0,1-2,2H2a2,2,0,0,1-2-2V0A0,0,0,0,1,0,0Z"
                stroke="none"></path>
            <path
                d="M1,.5H27a.5.5,0,0,1,.5.5V17A1.5,1.5,0,0,1,26,18.5H2A1.5,1.5,0,0,1,.5,17V1A.5.5,0,0,1,1,.5Z"
                fill="none"></path>
        </g>
        <g id="web-programming_5_" data-name="web-programming (5)"
            transform="translate(-14505 -13470.234)">
            <path id="Path_108476" data-name="Path 108476"
                d="M118.7,187.438a.493.493,0,0,1-.321-.118l-3.2-2.729a.5.5,0,0,1,0-.754l3.2-2.729a.5.5,0,1,1,.642.754l-2.762,2.352,2.762,2.352a.5.5,0,0,1-.321.873Zm0,0"
                transform="translate(-106.863 -168.183)" fill="#030303"></path>
            <path id="Path_108477" data-name="Path 108477"
                d="M250.2,187.438a.5.5,0,0,1-.321-.873l2.762-2.352-2.762-2.352a.5.5,0,0,1,.642-.754l3.2,2.729a.5.5,0,0,1,0,.754l-3.2,2.729A.493.493,0,0,1,250.2,187.438Zm0,0"
                transform="translate(-232.04 -168.183)" fill="#030303"></path>
            <path id="Path_108478" data-name="Path 108478"
                d="M189.45,163.5a.5.5,0,0,1-.1-.011.5.5,0,0,1-.383-.587l2-9.484a.5.5,0,1,1,.969.2l-2,9.484A.5.5,0,0,1,189.45,163.5Zm0,0"
                transform="translate(-175.584 -142.197)" fill="#030303"></path>
            <path id="Path_108479" data-name="Path 108479"
                d="M26.675,26.468H3.325A3.329,3.329,0,0,1,0,23.143V3.325A3.329,3.329,0,0,1,3.325,0H26.675A3.329,3.329,0,0,1,30,3.325V23.143A3.329,3.329,0,0,1,26.675,26.468ZM3.325.991A2.338,2.338,0,0,0,.991,3.325V23.143a2.338,2.338,0,0,0,2.335,2.335H26.675a2.338,2.338,0,0,0,2.335-2.335V3.325A2.338,2.338,0,0,0,26.675.991Zm0,0"
                fill="#030303"></path>
            <path id="Path_108480" data-name="Path 108480"
                d="M29.5,99.08H.5a.5.5,0,1,1,0-.991H29.5a.5.5,0,1,1,0,.991Zm0,0"
                transform="translate(0 -91.15)" fill="#030303"></path>
            <path id="Path_108481" data-name="Path 108481"
                d="M99.017,37.424a1.567,1.567,0,1,1,1.567-1.567A1.57,1.57,0,0,1,99.017,37.424Zm0-2.144a.577.577,0,1,0,.577.577A.578.578,0,0,0,99.017,35.28Zm0,0"
                transform="translate(-90.554 -31.863)" fill="#030303"></path>
            <path id="Path_108482" data-name="Path 108482"
                d="M30.954,37.209a1.567,1.567,0,1,1,1.567-1.567A1.569,1.569,0,0,1,30.954,37.209Zm0-2.144a.577.577,0,1,0,.577.577A.578.578,0,0,0,30.954,35.065Zm0,0"
                transform="translate(-27.307 -31.663)" fill="#030303"></path>
            <path id="Path_108483" data-name="Path 108483"
                d="M167.083,37.638a1.567,1.567,0,1,1,1.567-1.567A1.569,1.569,0,0,1,167.083,37.638Zm0-2.144a.577.577,0,1,0,.577.577A.577.577,0,0,0,167.083,35.494Zm0,0"
                transform="translate(-153.805 -32.063)" fill="#030303"></path>
        </g>
    </g>
</svg>