<svg id="digital-transformation" xmlns="http://www.w3.org/2000/svg" width="73.116" height="79.657" viewBox="0 0 73.116 79.657">
  <g id="Group_101091" data-name="Group 101091" transform="translate(25.23 1.896)">
    <path id="Path_107640" data-name="Path 107640" d="M282.118,304.737v6.851c2.183-.53,4.117-2.856,5.358-6.143a26.483,26.483,0,0,0-5.358-.708Z" transform="translate(-266.572 -259.143)" fill="#fecd2a"/>
    <path id="Path_107641" data-name="Path 107641" d="M331.318,203.842a26.675,26.675,0,0,1,.9,6.154h4.972a14.544,14.544,0,0,0-2.7-7.557,18.314,18.314,0,0,1-3.172,1.4Z" transform="translate(-307.996 -173.013)" fill="#fecd2a"/>
    <path id="Path_107642" data-name="Path 107642" d="M282.118,164.414v6.851a26.468,26.468,0,0,0,5.358-.708c-1.241-3.287-3.175-5.613-5.358-6.143Z" transform="translate(-266.572 -140.997)" fill="#fecd2a"/>
    <path id="Path_107643" data-name="Path 107643" d="M288.062,214.708a28.324,28.324,0,0,1-5.943.8v4.817h6.78a24.717,24.717,0,0,0-.837-5.617Z" transform="translate(-266.573 -183.342)" fill="#fecd2a"/>
    <path id="Path_107644" data-name="Path 107644" d="M314.093,175.348a16.714,16.714,0,0,0,2.524-1.088,14.688,14.688,0,0,0-5.073-3.52,13.733,13.733,0,0,1,1.377,2.038,18.243,18.243,0,0,1,1.172,2.571Z" transform="translate(-291.347 -146.323)" fill="#fecd2a"/>
    <circle id="Ellipse_442" data-name="Ellipse 442" cx="2.276" cy="2.276" r="2.276" transform="translate(41.438 58.269)" fill="#fecd2a"/>
    <path id="Path_107645" data-name="Path 107645" d="M414.883,472a2.276,2.276,0,1,0-2.276-2.276A2.279,2.279,0,0,0,414.883,472Z" transform="translate(-376.438 -396.137)" fill="#fecd2a"/>
    <path id="Path_107646" data-name="Path 107646" d="M236.216,170.559a26.479,26.479,0,0,0,5.358.708v-6.851c-2.183.53-4.117,2.856-5.358,6.143Z" transform="translate(-227.925 -140.999)" fill="#fecd2a"/>
    <path id="Path_107647" data-name="Path 107647" d="M331.319,268.4a18.32,18.32,0,0,1,3.172,1.4,14.544,14.544,0,0,0,2.7-7.557H332.22a26.68,26.68,0,0,1-.9,6.154Z" transform="translate(-307.997 -223.371)" fill="#fecd2a"/>
    <path id="Path_107648" data-name="Path 107648" d="M312.922,315.175a13.761,13.761,0,0,1-1.377,2.038,14.689,14.689,0,0,0,5.073-3.52,16.687,16.687,0,0,0-2.524-1.088,18.273,18.273,0,0,1-1.172,2.571Z" transform="translate(-291.348 -265.766)" fill="#fecd2a"/>
    <path id="Path_107649" data-name="Path 107649" d="M288.9,262.25h-6.78v4.817a28.313,28.313,0,0,1,5.943.8,24.713,24.713,0,0,0,.837-5.617Z" transform="translate(-266.573 -223.371)" fill="#fecd2a"/>
    <path id="Path_107650" data-name="Path 107650" d="M448.216,246.4a2.276,2.276,0,1,0-2.276-2.276A2.279,2.279,0,0,0,448.216,246.4Z" transform="translate(-404.502 -206.194)" fill="#fecd2a"/>
    <path id="Path_107651" data-name="Path 107651" d="M227.221,220.324H234v-4.817a28.318,28.318,0,0,1-5.943-.8,24.713,24.713,0,0,0-.837,5.617Z" transform="translate(-220.351 -183.342)" fill="#fecd2a"/>
    <path id="Path_107652" data-name="Path 107652" d="M212.288,172.778a13.76,13.76,0,0,1,1.377-2.038,14.69,14.69,0,0,0-5.073,3.52,16.682,16.682,0,0,0,2.524,1.088,18.28,18.28,0,0,1,1.172-2.571Z" transform="translate(-204.666 -146.323)" fill="#fecd2a"/>
    <circle id="Ellipse_443" data-name="Ellipse 443" cx="2.276" cy="2.276" r="2.276" transform="translate(36.169 0)" fill="#fecd2a"/>
    <circle id="Ellipse_444" data-name="Ellipse 444" cx="2.276" cy="2.276" r="2.276" transform="translate(41.438 13.041)" fill="#fecd2a"/>
    <path id="Path_107653" data-name="Path 107653" d="M189.628,203.841a18.306,18.306,0,0,1-3.172-1.4,14.544,14.544,0,0,0-2.7,7.557h4.972a26.691,26.691,0,0,1,.9-6.154Z" transform="translate(-183.755 -173.012)" fill="#fecd2a"/>
    <path id="Path_107654" data-name="Path 107654" d="M241.574,311.59v-6.851a26.47,26.47,0,0,0-5.358.708c1.241,3.287,3.175,5.613,5.358,6.143Z" transform="translate(-227.925 -259.144)" fill="#fecd2a"/>
    <path id="Path_107655" data-name="Path 107655" d="M211.116,312.6a16.678,16.678,0,0,0-2.524,1.088,14.688,14.688,0,0,0,5.073,3.52,13.739,13.739,0,0,1-1.377-2.038,18.26,18.26,0,0,1-1.172-2.571Z" transform="translate(-204.667 -265.765)" fill="#fecd2a"/>
    <path id="Path_107656" data-name="Path 107656" d="M228.058,267.867a28.325,28.325,0,0,1,5.943-.8V262.25h-6.78a24.713,24.713,0,0,0,.837,5.617Z" transform="translate(-220.351 -223.371)" fill="#fecd2a"/>
    <path id="Path_107657" data-name="Path 107657" d="M188.728,262.249h-4.972a14.544,14.544,0,0,0,2.7,7.557,18.32,18.32,0,0,1,3.172-1.4,26.682,26.682,0,0,1-.9-6.154Z" transform="translate(-183.756 -223.37)" fill="#fecd2a"/>
  </g>
  <path id="Path_107660" data-name="Path 107660" d="M57.295,82.5h6.428L63.38,67.258,52.812,64.877l-8.429-6.822-2.908-7.844-.851-9.361,3.253-9.006L51.1,23.992l12.277-3.5V5.709l-6.085.807V12.5L46.6,16.387l-4.63-3.457L33.32,21.518l-.491,1.563,4.007,4.168-2.97,4.6-1.787,5.447H26.073v12.92l6.006.965,4.092,10.049-3.342,4.719,8.646,9.377L46.6,71.6l10.692,4.334Z" transform="translate(-24.12 -4.25)" fill="#fff" stroke="#fff" stroke-width="1"/>
  <path id="Path_107658" data-name="Path 107658" d="M213.248,22.812a4.173,4.173,0,1,0-.187-1.9h-9.3a.948.948,0,0,0-.916.7l-2.931,10.939a16.586,16.586,0,0,0-5.531-3.754l5.207-19.431h8.275a4.173,4.173,0,1,0,0-1.9h-9a.948.948,0,0,0-.916.7l-5.359,20a16.526,16.526,0,1,0,0,31.8l5.359,20a.948.948,0,0,0,.916.7h9a4.173,4.173,0,1,0,0-1.9h-8.275l-5.207-19.431a16.593,16.593,0,0,0,5.736-3.968l3.1,11.551a.948.948,0,0,0,.916.7h9a4.173,4.173,0,1,0,0-1.9h-8.275L201.6,53.575a16.427,16.427,0,0,0,2.981-8.548h8.555a4.173,4.173,0,1,0,0-1.9h-8.555a16.432,16.432,0,0,0-3.172-8.813l3.083-11.506h8.758Zm3.948-3.623a2.276,2.276,0,1,1-2.276,2.276A2.279,2.279,0,0,1,217.2,19.189ZM211.929,6.147a2.276,2.276,0,1,1-2.276,2.276A2.279,2.279,0,0,1,211.929,6.147ZM182.482,30.564a13.739,13.739,0,0,0-1.377,2.038,18.246,18.246,0,0,0-1.172,2.571,16.716,16.716,0,0,1-2.524-1.088,14.688,14.688,0,0,1,5.073-3.52Zm-6.3,5.01a18.316,18.316,0,0,0,3.172,1.4,26.673,26.673,0,0,0-.9,6.154h-4.972a14.544,14.544,0,0,1,2.7-7.557Zm0,17.01a14.544,14.544,0,0,1-2.7-7.557h4.972a26.681,26.681,0,0,0,.9,6.154,18.318,18.318,0,0,0-3.172,1.4Zm1.224,1.49a16.687,16.687,0,0,1,2.524-1.088,18.287,18.287,0,0,0,1.172,2.571,13.764,13.764,0,0,0,1.377,2.038,14.69,14.69,0,0,1-5.073-3.52Zm9.724,4.52c-2.183-.53-4.117-2.856-5.358-6.143a26.481,26.481,0,0,1,5.358-.708v6.851Zm0-8.749a28.315,28.315,0,0,0-5.943.8,24.711,24.711,0,0,1-.837-5.617h6.78v4.817Zm0-6.714h-6.78a24.711,24.711,0,0,1,.837-5.617,28.325,28.325,0,0,0,5.943.8v4.817Zm0-6.715a26.47,26.47,0,0,1-5.358-.708c1.241-3.287,3.175-5.613,5.358-6.143v6.851Zm24.8,41.042a2.276,2.276,0,1,1-2.276,2.276A2.279,2.279,0,0,1,211.929,77.458ZM217.2,64.417a2.276,2.276,0,1,1-2.276,2.276A2.279,2.279,0,0,1,217.2,64.417Zm0-22.614a2.276,2.276,0,1,1-2.276,2.276A2.279,2.279,0,0,1,217.2,41.8Zm-18.443-7.718a16.685,16.685,0,0,1-2.524,1.088,18.283,18.283,0,0,0-1.172-2.571,13.761,13.761,0,0,0-1.377-2.038,14.69,14.69,0,0,1,5.073,3.52Zm-9.724-4.52c2.183.53,4.117,2.856,5.358,6.143a26.481,26.481,0,0,1-5.358.708V29.565Zm0,8.749a28.315,28.315,0,0,0,5.943-.8,24.715,24.715,0,0,1,.837,5.617h-6.78V38.313Zm0,6.714h6.78a24.713,24.713,0,0,1-.837,5.617,28.325,28.325,0,0,0-5.943-.8V45.027Zm0,13.566V51.742a26.47,26.47,0,0,1,5.358.708c-1.241,3.287-3.175,5.613-5.358,6.143Zm4.651-1a13.739,13.739,0,0,0,1.377-2.038,18.258,18.258,0,0,0,1.172-2.571,16.672,16.672,0,0,1,2.524,1.088,14.688,14.688,0,0,1-5.073,3.52Zm6.3-5.01a18.317,18.317,0,0,0-3.172-1.4,26.681,26.681,0,0,0,.9-6.154h4.972a14.544,14.544,0,0,1-2.7,7.557Zm2.7-9.453h-4.972a26.691,26.691,0,0,0-.9-6.154,18.311,18.311,0,0,0,3.172-1.4,14.544,14.544,0,0,1,2.7,7.557Z" transform="translate(-148.253 -4.25)"/>
  <path id="Path_107659" data-name="Path 107659" d="M58.832,83.906h5.116a.948.948,0,0,0,.948-.948V66.8a.948.948,0,0,0-.948-.948,21.774,21.774,0,0,1,0-43.548.948.948,0,0,0,.948-.948V5.2a.948.948,0,0,0-.948-.948H58.832a3.707,3.707,0,0,0-3.7,3.7v3.116A33.926,33.926,0,0,0,46.845,14.5L44.639,12.3a3.708,3.708,0,0,0-5.237,0l-7.234,7.235a3.708,3.708,0,0,0,0,5.237l2.2,2.2a33.912,33.912,0,0,0-3.436,8.285H27.823a3.707,3.707,0,0,0-3.7,3.7V49.194a3.707,3.707,0,0,0,3.7,3.7h3.114a33.91,33.91,0,0,0,3.435,8.285l-2.2,2.2a3.708,3.708,0,0,0,0,5.237L39.4,75.857a3.708,3.708,0,0,0,5.237,0l2.206-2.206a33.907,33.907,0,0,0,8.284,3.435V80.2a3.707,3.707,0,0,0,3.7,3.7ZM47.189,71.65a.949.949,0,0,0-1.164.139L43.3,74.517a1.811,1.811,0,0,1-2.555,0l-7.235-7.235a1.811,1.811,0,0,1,0-2.555L36.234,62a.948.948,0,0,0,.139-1.164A32.031,32.031,0,0,1,32.6,51.724.948.948,0,0,0,31.674,51H27.823a1.808,1.808,0,0,1-1.806-1.806V38.962a1.808,1.808,0,0,1,1.806-1.806h3.851a.948.948,0,0,0,.921-.724,32.035,32.035,0,0,1,3.779-9.113.948.948,0,0,0-.139-1.164l-2.726-2.726a1.811,1.811,0,0,1,0-2.555l7.235-7.235a1.812,1.812,0,0,1,2.555,0l2.727,2.727a.948.948,0,0,0,1.164.139A32.041,32.041,0,0,1,56.3,12.726a.948.948,0,0,0,.724-.921V7.952a1.808,1.808,0,0,1,1.806-1.806H63V20.425a23.671,23.671,0,0,0,0,47.3V82.008H58.832A1.808,1.808,0,0,1,57.026,80.2V76.349a.948.948,0,0,0-.724-.921,32.033,32.033,0,0,1-9.112-3.778Z" transform="translate(-24.12 -4.25)"/>
</svg>
