<svg xmlns="http://www.w3.org/2000/svg" width="79.661" height="79.931" viewBox="0 0 79.661 79.931">
  <g id="Component_59_2" data-name="Component 59 – 2" transform="translate(1.003)">
    <path id="Path_107768" data-name="Path 107768" d="M518.188,351.3h59.585L585,347.688l3.224-7.891v-5.6l-5.325-6.385-9.145-2.52-4.265-5.326a18.8,18.8,0,0,0-14.4-7.391,17.425,17.425,0,0,0-14.6,6.336l-4.466,6.381-10.265,2.52-4.816,4.5-1.191,3.863-5.616,3.621-1.205,6.219,4.581,5.281Z" transform="translate(-511.73 -305.439)" fill="#fff" stroke="#fff" stroke-width="1"/>
    <g id="Ellipse_466" data-name="Ellipse 466" transform="translate(3.27 51.561)" fill="#fecd2a" stroke="#fecd2a" stroke-width="1">
      <ellipse cx="2" cy="2.5" rx="2" ry="2.5" stroke="none"/>
      <ellipse cx="2" cy="2.5" rx="1.5" ry="2" fill="none"/>
    </g>
    <g id="Ellipse_467" data-name="Ellipse 467" transform="translate(12.27 62.561)" fill="#fecd2a" stroke="#fecd2a" stroke-width="1">
      <ellipse cx="2" cy="2.5" rx="2" ry="2.5" stroke="none"/>
      <ellipse cx="2" cy="2.5" rx="1.5" ry="2" fill="none"/>
    </g>
    <g id="Ellipse_468" data-name="Ellipse 468" transform="translate(36.27 72.561)" fill="#fecd2a" stroke="#fecd2a" stroke-width="1">
      <circle cx="3" cy="3" r="3" stroke="none"/>
      <circle cx="3" cy="3" r="2.5" fill="none"/>
    </g>
    <g id="Ellipse_469" data-name="Ellipse 469" transform="translate(70.27 50.561)" fill="#fecd2a" stroke="#fecd2a" stroke-width="1">
      <circle cx="3" cy="3" r="3" stroke="none"/>
      <circle cx="3" cy="3" r="2.5" fill="none"/>
    </g>
    <g id="Ellipse_470" data-name="Ellipse 470" transform="translate(61.27 61.561)" fill="#fecd2a" stroke="#fecd2a" stroke-width="1">
      <circle cx="3" cy="3" r="3" stroke="none"/>
      <circle cx="3" cy="3" r="2.5" fill="none"/>
    </g>
    <g id="g2718" transform="translate(-1.172 685.559)">
      <g id="g2720" transform="translate(40.38 -638.29)">
        <path id="path2722" d="M0,0V24.038" transform="translate(0)" fill="none" stroke="#000" stroke-linecap="round" stroke-linejoin="round" stroke-width="1.8"/>
      </g>
      <g id="g2724" transform="translate(0 -682.665)">
        <g id="Group_101130" data-name="Group 101130">
          <g id="g2732" transform="translate(36.568 68.414)">
            <path id="path2734" d="M-57.429-28.715A3.812,3.812,0,0,1-61.24-24.9a3.812,3.812,0,0,1-3.812-3.812,3.812,3.812,0,0,1,3.812-3.812A3.812,3.812,0,0,1-57.429-28.715Z" transform="translate(65.052 32.527)" fill="none" stroke="#000" stroke-linecap="round" stroke-linejoin="round" stroke-width="2"/>
          </g>
          <g id="g2736" transform="translate(53.301 44.375)">
            <path id="path2738" d="M0,0V17.988H9.2" fill="none" stroke="#000" stroke-linecap="round" stroke-linejoin="round" stroke-width="1.8"/>
          </g>
          <g id="g2740" transform="translate(62.502 59.34)">
            <path id="path2742" d="M-45.544-22.772a3.023,3.023,0,0,1-3.023,3.023,3.023,3.023,0,0,1-3.023-3.023,3.023,3.023,0,0,1,3.023-3.023A3.023,3.023,0,0,1-45.544-22.772Z" transform="translate(51.589 25.795)" fill="none" stroke="#000" stroke-linecap="round" stroke-linejoin="round" stroke-width="2"/>
          </g>
          <g id="g2744" transform="translate(12.212 59.34)">
            <path id="path2746" d="M-45.545-22.772a3.023,3.023,0,0,1-3.023,3.023,3.023,3.023,0,0,1-3.023-3.023,3.023,3.023,0,0,1,3.023-3.023A3.023,3.023,0,0,1-45.545-22.772Z" transform="translate(51.591 25.795)" fill="none" stroke="#000" stroke-linecap="round" stroke-linejoin="round" stroke-width="2"/>
          </g>
          <g id="g2748" transform="translate(71.891 48.468)">
            <path id="path2750" d="M-37.479-18.739a2.488,2.488,0,0,1-2.488,2.488,2.488,2.488,0,0,1-2.488-2.488,2.488,2.488,0,0,1,2.488-2.487A2.488,2.488,0,0,1-37.479-18.739Z" transform="translate(42.455 21.227)" fill="none" stroke="#000" stroke-linecap="round" stroke-linejoin="round" stroke-width="2"/>
          </g>
          <g id="g2752" transform="translate(3.969 48.468)">
            <path id="path2754" d="M-37.479-18.739a2.488,2.488,0,0,1-2.488,2.488,2.488,2.488,0,0,1-2.488-2.488,2.488,2.488,0,0,1,2.488-2.487A2.487,2.487,0,0,1-37.479-18.739Z" transform="translate(42.455 21.227)" fill="none" stroke="#000" stroke-linecap="round" stroke-linejoin="round" stroke-width="2"/>
          </g>
          <g id="g2756" transform="translate(18.257 44.375)">
            <path id="path2758" d="M-69.317,0V17.988h-9.2" transform="translate(78.518)" fill="none" stroke="#000" stroke-linecap="round" stroke-linejoin="round" stroke-width="1.8"/>
          </g>
          <g id="g2760" transform="translate(66.314 44.375)">
            <path id="path2762" d="M0,0V6.58H5.578" fill="none" stroke="#000" stroke-linecap="round" stroke-linejoin="round" stroke-width="1.8"/>
          </g>
          <g id="g2764" transform="translate(8.944 44.375)">
            <path id="path2766" d="M-42.018,0V6.58H-47.6" transform="translate(47.596)" fill="none" stroke="#000" stroke-linecap="round" stroke-linejoin="round" stroke-width="1.8"/>
          </g>
          <g id="g2768" transform="translate(1.172 3.963)">
            <path id="path2770" d="M-406.18-26.749A20.109,20.109,0,0,0-417.62-30.3a20.2,20.2,0,0,0-18,11.019c-.974,1.9-2.916,1.653-3.745,1.653a13.872,13.872,0,0,0-13.122,9.374,3.13,3.13,0,0,1-1.956,1.9,8.472,8.472,0,0,0-5.654,8.327,8.593,8.593,0,0,0,8.652,8.134h34.275" transform="translate(460.098 30.3)" fill="none" stroke="#000" stroke-linecap="round" stroke-linejoin="round" stroke-width="2"/>
          </g>
          <g id="g2772" transform="translate(49.574 11.211)">
            <path id="path2774" d="M0-249.836H14.83a14.367,14.367,0,0,0,14.421-14.42,14.144,14.144,0,0,0-14.635-13.859,3.078,3.078,0,0,1-2.8-1.6A20.249,20.249,0,0,0,9.579-283" transform="translate(0 283.001)" fill="none" stroke="#000" stroke-linecap="round" stroke-linejoin="round" stroke-width="2"/>
          </g>
        </g>
      </g>
    </g>
    <g id="Group_101043" data-name="Group 101043" transform="translate(45.472)">
      <path id="Path_107559" data-name="Path 107559" d="M13.875-.225c.764,0,.222,1.432,1.454,1.676,2.538.473,4.642,1.7,7.041,1.722.318.262,1.409.706,1.518,1.476.066,0-1.109.424-.354,1.905.933,1.8,1.735,2.659,1.735,4.952,0,.236,1.862.257,1.833,1.023-.011.388-.039.782-.146,1.686-.074.684-1.087.564-1.4,1.774a25.126,25.126,0,0,1-1.726,4.658c-.178.383.833.775.364,1.616a12.078,12.078,0,0,1-2.03,2.6c-.314.333-1.192-1.674-2.007-1.025-.64.526-2.713.61-3.973,1.941-.79.851-.166,2.056-1.631,2.056a16.6,16.6,0,0,1-2.591-.226c-.542-.075-.18-1.541-1.205-1.83A19.98,19.98,0,0,1,7.17,24.4c-.616-.289-1.918.713-2.947,0a6.517,6.517,0,0,1-1.6-1.719c-.319-.42.469-1.441,0-2.566a27.426,27.426,0,0,1-2-4.262c-.052-.1-1.274-.407-1.274-1.09A14.917,14.917,0,0,1-.4,12.19c.08-.52,1.319,0,1.623-1.006a18.976,18.976,0,0,1,1.667-3.9c.241-.451-.865-1.573-.269-2.446A9.226,9.226,0,0,1,4.773,2.706c.339-.271.677.972,1.567.467.79-.466,2.375-.762,4.111-1.722C11.358.938,12.437-.225,13.875-.225Z" transform="translate(1.82 1.464)" fill="#fecd2a"/>
      <g id="Ellipse_430" data-name="Ellipse 430" transform="translate(7.849 7.854)" fill="#fff" stroke="#14cca6" stroke-width="1">
        <circle cx="7.201" cy="7.201" r="7.201" stroke="none"/>
        <circle cx="7.201" cy="7.201" r="6.701" fill="none"/>
      </g>
      <path id="agile_3_" data-name="agile (3)" d="M12.935,21.09A7.769,7.769,0,1,1,20.7,28.86,7.778,7.778,0,0,1,12.935,21.09Zm1.574,0a6.2,6.2,0,1,0,6.2-6.2A6.2,6.2,0,0,0,14.509,21.09ZM13.9,10.143a12.744,12.744,0,0,1,3.88-1.609l.767-1.992a.787.787,0,0,1,.735-.5H22.13a.787.787,0,0,1,.735.5l.767,1.992a12.747,12.747,0,0,1,3.88,1.609l1.953-.867a.787.787,0,0,1,.876.163l2.016,2.016a.787.787,0,0,1,.163.876l-.867,1.952a12.745,12.745,0,0,1,1.609,3.881l1.992.767a.787.787,0,0,1,.5.735v2.851a.787.787,0,0,1-.5.735l-1.992.767a12.747,12.747,0,0,1-1.609,3.88l.867,1.953a.787.787,0,0,1-.163.876L30.34,32.742a.787.787,0,0,1-.876.163l-1.952-.867a12.744,12.744,0,0,1-3.881,1.609l-.767,1.992a.787.787,0,0,1-.735.5H19.279a.787.787,0,0,1-.735-.5l-.767-1.992a12.747,12.747,0,0,1-3.88-1.609l-1.953.867a.787.787,0,0,1-.876-.163L9.053,30.726a.787.787,0,0,1-.163-.876L9.757,27.9a12.744,12.744,0,0,1-1.609-3.881l-1.992-.767a.787.787,0,0,1-.5-.735V19.665a.787.787,0,0,1,.5-.735l1.992-.767a12.739,12.739,0,0,1,1.609-3.88L8.89,12.331a.787.787,0,0,1,.163-.876l2.016-2.016a.787.787,0,0,1,.876-.163Zm-.25,1.611L11.8,10.934l-1.252,1.252.821,1.848a.787.787,0,0,1-.066.758,11.2,11.2,0,0,0-1.7,4.1.787.787,0,0,1-.49.583l-1.885.726v1.77l1.885.726a.787.787,0,0,1,.49.583,11.2,11.2,0,0,0,1.7,4.105.787.787,0,0,1,.066.758L10.548,30,11.8,31.247l1.848-.821a.787.787,0,0,1,.758.066,11.2,11.2,0,0,0,4.1,1.7.787.787,0,0,1,.583.49l.726,1.886h1.77l.726-1.885a.787.787,0,0,1,.583-.49A11.2,11.2,0,0,0,27,30.492a.787.787,0,0,1,.758-.066l1.847.82L30.861,30l-.821-1.848a.787.787,0,0,1,.066-.758,11.2,11.2,0,0,0,1.7-4.1.787.787,0,0,1,.49-.583l1.886-.726v-1.77L32.3,19.48a.787.787,0,0,1-.49-.583,11.2,11.2,0,0,0-1.7-4.106.787.787,0,0,1-.066-.758l.82-1.847-1.252-1.252-1.848.821A.787.787,0,0,1,27,11.689a11.2,11.2,0,0,0-4.1-1.7.787.787,0,0,1-.583-.49L21.59,7.612h-1.77L19.094,9.5a.787.787,0,0,1-.583.49,11.2,11.2,0,0,0-4.1,1.7A.788.788,0,0,1,13.648,11.755Z" transform="translate(-5.652 -6.038)"/>
    </g>
  </g>
</svg>
