<svg xmlns="http://www.w3.org/2000/svg" width="25.645" height="38.451" viewBox="0 0 25.645 38.451">
  <path id="Icon_ionic-ios-arrow-round-up" data-name="Icon ionic-ios-arrow-round-up" d="M25.154,24.521a1.745,1.745,0,0,0-2.457-.013l-8.134,8.107V1.723a1.736,1.736,0,0,0-3.473,0V32.615l-8.134-8.12A1.758,1.758,0,0,0,.5,24.508a1.729,1.729,0,0,0,.013,2.444L11.6,37.957h0a1.95,1.95,0,0,0,.548.361,1.657,1.657,0,0,0,.668.134,1.741,1.741,0,0,0,1.215-.494L25.114,26.952A1.7,1.7,0,0,0,25.154,24.521Z" transform="translate(25.645 38.451) rotate(180)" fill="#fff"/>
</svg>
