<svg id="Group_98057" data-name="Group 98057" xmlns="http://www.w3.org/2000/svg" width="250" height="62.436" viewBox="0 0 250 62.436">
  <path id="Path_65627" data-name="Path 65627" d="M19.861,5.722H6.354V17.345H0V29.936H6.354V44.809c0,11.622,9.2,19.128,20.451,19.128h7.917V51.831H26.667a6.939,6.939,0,0,1-6.508-4.486,6.9,6.9,0,0,1-.436-2.743V29.936h8.715a6.687,6.687,0,0,0,6.285-6.607V17.518H19.861ZM96.7,45.086a6.945,6.945,0,0,1-13.889,0V23.951a6.471,6.471,0,0,0-3.927-6.082,6.514,6.514,0,0,0-2.5-.525H69.445V43.253c0,11.8,5.937,21.273,20.312,21.273s20.417-9.478,20.417-21.273V17.345H96.7V45.086Zm59.549-2.906c0-14.39-7.709-25.6-21.632-25.6-11.979,0-21.771,10.135-21.771,23.9,0,15.012,8.889,23.729,21.945,24.213A22.092,22.092,0,0,0,154.34,52.592l-12.152-3.459a8.971,8.971,0,0,1-7.57,3.84,8.459,8.459,0,0,1-8.715-7.817H156.25V42.181ZM125.9,35.435a8.857,8.857,0,0,1,17.6,0ZM58.368,17.345H56.424a18.988,18.988,0,0,0-18.646,19.3V63.9H51.25V37.269a6.921,6.921,0,0,1,4.221-6.643,6.966,6.966,0,0,1,2.723-.552h7.778V17.345Z" transform="translate(0 -2.263)" fill="#e73525" fill-rule="evenodd"/>
  <path id="Path_65628" data-name="Path 65628" d="M340.729,0H313.194V20.547a7.73,7.73,0,0,0,7.813,7.61,8.027,8.027,0,0,0,6.944-4.013,14.725,14.725,0,0,1,27.361,7.3,14.664,14.664,0,0,1-27.361,6.918,7.966,7.966,0,0,0-12.4-1.874,7.7,7.7,0,0,0-2.354,5.367V62.263h27.361a31.505,31.505,0,0,0,31.666-30.82A31.5,31.5,0,0,0,340.729,0Z" transform="translate(-122.222)" fill="#fff"/>
  <path id="Path_65629" data-name="Path 65629" d="M286.213,30.356a4.665,4.665,0,0,1-2.187-3.978,4.768,4.768,0,0,1,2.187-3.943,12.123,12.123,0,1,0-18.576-10.377,11.853,11.853,0,0,0,5.695,10.377,4.5,4.5,0,0,1,1.763,6.2,4.848,4.848,0,0,1-1.59,1.718,12.131,12.131,0,0,0-5.868,10.377v9.374a12.153,12.153,0,0,0,24.306,0V40.733a11.717,11.717,0,0,0-5.729-10.377Z" transform="translate(-104.443 -0.02)" fill="#fff"/>
</svg>
